<svg xmlns="http://www.w3.org/2000/svg" enable-background="new 0 0 512 512" viewBox="0 0 512 512" id="vr-glasses">
  <g>
    <linearGradient id="a" x1="1" x2="511" y1="256" y2="256" gradientUnits="userSpaceOnUse">
      <stop offset="0" stop-color="#4371c2"></stop>
      <stop offset=".022" stop-color="#486ec1"></stop>
      <stop offset=".222" stop-color="#6d58bc"></stop>
      <stop offset=".421" stop-color="#8a46b8"></stop>
      <stop offset=".618" stop-color="#9e3ab4"></stop>
      <stop offset=".813" stop-color="#ab33b3"></stop>
      <stop offset="1" stop-color="#af30b2"></stop>
    </linearGradient>
    <path fill="url(#a)" d="M471,266h-10v-10c0-33.084-26.916-60-60-60h-60v-2.5c0-23.639-17.36-43.295-40-46.902V76
		c0-16.542-13.458-30-30-30h-30c-16.542,0-30,13.458-30,30v70.598c-22.64,3.607-40,23.263-40,46.902v2.5h-60
		c-33.084,0-60,26.916-60,60v10H41c-22.056,0-40,17.944-40,40v50c0,22.056,17.944,40,40,40h10v10c0,33.084,26.916,60,60,60h55
		c18.785,0,36.729-8.972,48-24c7.514-10.019,19.477-16,32-16h20c12.523,0,24.486,5.981,32,16c11.271,15.028,29.215,24,48,24h55
		c33.084,0,60-26.916,60-60v-10h10c22.056,0,40-17.944,40-40v-50C511,283.944,493.056,266,471,266z M51,376H41
		c-11.028,0-20-8.972-20-20v-50c0-11.028,8.972-20,20-20h10V376z M231,76c0-5.514,4.486-10,10-10h30c5.514,0,10,4.486,10,10v70h-50
		V76z M191,193.5c0-15.163,12.337-27.5,27.5-27.5c7.862,0,67.32,0,75,0c15.163,0,27.5,12.337,27.5,27.5v2.5H191V193.5z M111,216
		c16.373,0,273.633,0,290,0c20.434,0,37.328,15.406,39.703,35.211C434.882,247.901,428.161,246,421,246H91
		c-7.161,0-13.882,1.901-19.703,5.211C73.672,231.406,90.566,216,111,216z M441,406c0,22.056-17.944,40-40,40h-55
		c-12.523,0-24.486-5.981-32-16c-11.271-15.028-29.215-24-48-24h-20c-18.785,0-36.729,8.972-48,24c-7.514,10.019-19.477,16-32,16
		h-55c-22.056,0-40-17.944-40-40c0-27.008,0-95.416,0-120c0-11.028,8.972-20,20-20h330c11.028,0,20,8.972,20,20
		C441,310.541,441,378.97,441,406z M491,356c0,11.028-8.972,20-20,20h-10v-90h10c11.028,0,20,8.972,20,20V356z M301,306
		c0,5.522-4.478,10-10,10h-70c-5.522,0-10-4.478-10-10s4.478-10,10-10h70C296.522,296,301,300.478,301,306z"></path>
  </g>
</svg>
